<?xml version="1.0" encoding="UTF-8" standalone="no"?>
<svg width="3000px" height="3000px" viewBox="0 0 3000 3000" version="1.1" xmlns="http://www.w3.org/2000/svg" xmlns:xlink="http://www.w3.org/1999/xlink" xmlns:sketch="http://www.bohemiancoding.com/sketch/ns">
    <!-- Generator: Sketch 3.3.3 (12072) - http://www.bohemiancoding.com/sketch -->
    <title>Artboard 1</title>
    <desc>Created with Sketch.</desc>
    <defs></defs>
    <g id="Page-1" stroke="none" stroke-width="1" fill="none" fill-rule="evenodd" sketch:type="MSPage">
        <g id="Artboard-1" sketch:type="MSArtboardGroup" fill="#FFFFFF">
            <path d="M1660,1516 C1660,1511.33333 1658.5,1507.5 1655.5,1504.5 L1479.5,1328.5 C1476.5,1325.5 1472.66667,1324 1468,1324 C1463.33333,1324 1459.5,1325.5 1456.5,1328.5 L1281,1504 C1277.66667,1508 1276,1512 1276,1516 C1276,1520.66667 1277.5,1524.5 1280.5,1527.5 C1283.5,1530.5 1287.33333,1532 1292,1532 L1404,1532 L1404,1708 C1404,1712.33333 1405.58333,1716.08333 1408.75,1719.25 C1411.91667,1722.41667 1415.66667,1724 1420,1724 L1516,1724 C1520.33333,1724 1524.08333,1722.41667 1527.25,1719.25 C1530.41667,1716.08333 1532,1712.33333 1532,1708 L1532,1532 L1644,1532 C1648.33333,1532 1652.08333,1530.41667 1655.25,1527.25 C1658.41667,1524.08333 1660,1520.33333 1660,1516 L1660,1516 Z M1980,1660 C1980,1713 1961.25,1758.25 1923.75,1795.75 C1886.25,1833.25 1841,1852 1788,1852 L1244,1852 C1182.33333,1852 1129.58333,1830.08333 1085.75,1786.25 C1041.91667,1742.41667 1020,1689.66667 1020,1628 C1020,1584.66667 1031.66667,1544.66667 1055,1508 C1078.33333,1471.33333 1109.66667,1443.83333 1149,1425.5 C1148.33333,1415.5 1148,1408.33333 1148,1404 C1148,1333.33333 1173,1273 1223,1223 C1273,1173 1333.33333,1148 1404,1148 C1456,1148 1503.58333,1162.5 1546.75,1191.5 C1589.91667,1220.5 1621.33333,1259 1641,1307 C1664.66667,1286.33333 1692.33333,1276 1724,1276 C1759.33333,1276 1789.5,1288.5 1814.5,1313.5 C1839.5,1338.5 1852,1368.66667 1852,1404 C1852,1429.33333 1845.16667,1452.33333 1831.5,1473 C1874.83333,1483.33333 1910.41667,1505.91667 1938.25,1540.75 C1966.08333,1575.58333 1980,1615.33333 1980,1660 L1980,1660 Z" id="Shape" sketch:type="MSShapeGroup"></path>
        </g>
    </g>
</svg>